<?xml version="1.0" encoding="UTF-8"?>
<svg version="1.1" xmlns="http://www.w3.org/2000/svg" width="512" height="512">
<path d="M0 0 C1.37536956 -0.00461937 2.75073416 -0.0109792 4.12608862 -0.01890898 C7.87267008 -0.03548353 11.6188398 -0.02741074 15.36542201 -0.0149641 C19.41867547 -0.00586679 23.471861 -0.01990641 27.52510071 -0.03088379 C35.45243352 -0.04862392 43.37961443 -0.04484919 51.30695307 -0.03323323 C57.75251483 -0.02418138 64.19803417 -0.02298246 70.64360046 -0.02732849 C71.5627052 -0.02794142 72.48180994 -0.02855436 73.42876634 -0.02918586 C75.29620017 -0.03046483 77.16363398 -0.03176168 79.03106779 -0.03307623 C96.52156793 -0.04446882 114.01198407 -0.03138907 131.50247043 -0.00987476 C146.4939172 0.00799502 161.48524004 0.00489054 176.47668457 -0.0135498 C193.9067223 -0.03497987 211.33668649 -0.04337031 228.76673555 -0.03110075 C230.62710856 -0.02982662 232.48748158 -0.02856914 234.34785461 -0.02732849 C235.7206851 -0.02640284 235.7206851 -0.02640284 237.12124953 -0.02545848 C243.55535361 -0.02201199 249.98941086 -0.02781879 256.42350769 -0.0372467 C264.2698678 -0.04849183 272.11606795 -0.04537396 279.96240985 -0.02412373 C283.96194563 -0.01364702 287.96121517 -0.00943336 291.96074867 -0.02272034 C295.6286215 -0.03472076 299.29598364 -0.02795745 302.96381074 -0.00681013 C304.90489118 -0.00029074 306.84600763 -0.01321146 308.78704977 -0.02703905 C321.76777741 0.08805325 332.3397233 3.70482661 341.99572754 12.50793457 C351.42481571 22.91848917 353.6008664 34.86719892 353.50366211 48.51220703 C353.50828148 49.88757659 353.5146413 51.26294119 353.52257109 52.63829565 C353.53914564 56.38487711 353.53107285 60.13104683 353.51862621 63.87762904 C353.5095289 67.9308825 353.52356852 71.98406803 353.5345459 76.03730774 C353.55228602 83.96464056 353.5485113 91.89182146 353.53689533 99.8191601 C353.52784349 106.26472186 353.52664457 112.7102412 353.5309906 119.1558075 C353.53160353 120.07491223 353.53221646 120.99401697 353.53284797 121.94097337 C353.53412694 123.8084072 353.53542379 125.67584102 353.53673834 127.54327482 C353.54813093 145.03377496 353.53505118 162.5241911 353.51353687 180.01467746 C353.49566709 195.00612423 353.49877157 209.99744707 353.51721191 224.9888916 C353.53864198 242.41892933 353.54703242 259.84889352 353.53476286 277.27894258 C353.53348873 279.13931559 353.53223125 280.99968861 353.5309906 282.86006165 C353.53006495 284.23289213 353.53006495 284.23289213 353.52912059 285.63345656 C353.5256741 292.06756064 353.5314809 298.50161789 353.54090881 304.93571472 C353.55215394 312.78207483 353.54903607 320.62827498 353.52778584 328.47461689 C353.51730913 332.47415266 353.51309547 336.4734222 353.52638245 340.4729557 C353.53838287 344.14082853 353.53161956 347.80819067 353.51047224 351.47601777 C353.50395285 353.41709821 353.51687357 355.35821467 353.53070116 357.2992568 C353.41560885 370.27998444 349.7988355 380.85193034 340.99572754 390.50793457 C330.58517294 399.93702274 318.63646319 402.11307343 304.99145508 402.01586914 C303.61608552 402.02048851 302.24072091 402.02684834 300.86536646 402.03477812 C297.118785 402.05135267 293.37261528 402.04327988 289.62603307 402.03083324 C285.57277961 402.02173594 281.51959407 402.03577555 277.46635437 402.04675293 C269.53902155 402.06449306 261.61184065 402.06071834 253.68450201 402.04910237 C247.23894025 402.04005052 240.79342091 402.0388516 234.34785461 402.04319763 C233.42874988 402.04381056 232.50964514 402.0444235 231.56268874 402.045055 C229.69525491 402.04633397 227.82782109 402.04763082 225.96038729 402.04894537 C208.46988715 402.06033796 190.97947101 402.04725821 173.48898464 402.0257439 C158.49753788 402.00787412 143.50621504 402.0109786 128.51477051 402.02941895 C111.08473278 402.05084901 93.65476859 402.05923945 76.22471952 402.04696989 C74.36434652 402.04569576 72.5039735 402.04443828 70.64360046 402.04319763 C69.72838014 402.04258053 68.81315982 402.04196343 67.87020555 402.04132763 C61.43610147 402.03788113 55.00204422 402.04368793 48.56794739 402.05311584 C40.72158728 402.06436097 32.87538713 402.0612431 25.02904522 402.03999287 C21.02950945 402.02951616 17.03023991 402.0253025 13.03070641 402.03858948 C9.36283358 402.0505899 5.69547143 402.0438266 2.02764434 402.02267927 C0.0865639 402.01615988 -1.85455256 402.0290806 -3.79559469 402.04290819 C-16.77632233 401.92781589 -27.34826823 398.31104253 -37.00427246 389.50793457 C-46.43336063 379.09737997 -48.60941132 367.14867022 -48.51220703 353.50366211 C-48.5168264 352.12829255 -48.52318623 350.75292795 -48.53111601 349.37757349 C-48.54769057 345.63099203 -48.53961778 341.88482231 -48.52717113 338.1382401 C-48.51807383 334.08498664 -48.53211344 330.03180111 -48.54309082 325.9785614 C-48.56083095 318.05122858 -48.55705623 310.12404768 -48.54544026 302.19670904 C-48.53638841 295.75114728 -48.5351895 289.30562794 -48.53953552 282.86006165 C-48.54014845 281.94095691 -48.54076139 281.02185217 -48.54139289 280.07489577 C-48.54267186 278.20746194 -48.54396871 276.34002812 -48.54528326 274.47259432 C-48.55667585 256.98209418 -48.5435961 239.49167804 -48.52208179 222.00119168 C-48.50421201 207.00974491 -48.50731649 192.01842207 -48.52575684 177.02697754 C-48.5471869 159.59693981 -48.55557734 142.16697562 -48.54330778 124.73692656 C-48.54203365 122.87655355 -48.54077617 121.01618053 -48.53953552 119.1558075 C-48.53891842 118.24058717 -48.53830132 117.32536685 -48.53766552 116.38241258 C-48.53421902 109.9483085 -48.54002582 103.51425125 -48.54945374 97.08015442 C-48.56069886 89.23379431 -48.55758099 81.38759416 -48.53633076 73.54125226 C-48.52585405 69.54171648 -48.52164039 65.54244694 -48.53492737 61.54291344 C-48.54692779 57.87504061 -48.54016449 54.20767847 -48.51901716 50.53985137 C-48.51249777 48.59877093 -48.52541849 46.65765448 -48.53924608 44.71661234 C-48.42415378 31.7358847 -44.80738042 21.1639388 -36.00427246 11.50793457 C-25.59371786 2.0788464 -13.64500811 -0.09720429 0 0 Z " fill="#FFFFFF" transform="translate(104.0042724609375,55.4920654296875)"/>
<path d="M0 0 C1.37536956 -0.00461937 2.75073416 -0.0109792 4.12608862 -0.01890898 C7.87267008 -0.03548353 11.6188398 -0.02741074 15.36542201 -0.0149641 C19.41867547 -0.00586679 23.471861 -0.01990641 27.52510071 -0.03088379 C35.45243352 -0.04862392 43.37961443 -0.04484919 51.30695307 -0.03323323 C57.75251483 -0.02418138 64.19803417 -0.02298246 70.64360046 -0.02732849 C71.5627052 -0.02794142 72.48180994 -0.02855436 73.42876634 -0.02918586 C75.29620017 -0.03046483 77.16363398 -0.03176168 79.03106779 -0.03307623 C96.52156793 -0.04446882 114.01198407 -0.03138907 131.50247043 -0.00987476 C146.4939172 0.00799502 161.48524004 0.00489054 176.47668457 -0.0135498 C193.9067223 -0.03497987 211.33668649 -0.04337031 228.76673555 -0.03110075 C230.62710856 -0.02982662 232.48748158 -0.02856914 234.34785461 -0.02732849 C235.7206851 -0.02640284 235.7206851 -0.02640284 237.12124953 -0.02545848 C243.55535361 -0.02201199 249.98941086 -0.02781879 256.42350769 -0.0372467 C264.2698678 -0.04849183 272.11606795 -0.04537396 279.96240985 -0.02412373 C283.96194563 -0.01364702 287.96121517 -0.00943336 291.96074867 -0.02272034 C295.6286215 -0.03472076 299.29598364 -0.02795745 302.96381074 -0.00681013 C304.90489118 -0.00029074 306.84600763 -0.01321146 308.78704977 -0.02703905 C321.76777741 0.08805325 332.3397233 3.70482661 341.99572754 12.50793457 C351.42481571 22.91848917 353.6008664 34.86719892 353.50366211 48.51220703 C353.50828148 49.88757659 353.5146413 51.26294119 353.52257109 52.63829565 C353.53914564 56.38487711 353.53107285 60.13104683 353.51862621 63.87762904 C353.5095289 67.9308825 353.52356852 71.98406803 353.5345459 76.03730774 C353.55228602 83.96464056 353.5485113 91.89182146 353.53689533 99.8191601 C353.52784349 106.26472186 353.52664457 112.7102412 353.5309906 119.1558075 C353.53160353 120.07491223 353.53221646 120.99401697 353.53284797 121.94097337 C353.53412694 123.8084072 353.53542379 125.67584102 353.53673834 127.54327482 C353.54813093 145.03377496 353.53505118 162.5241911 353.51353687 180.01467746 C353.49566709 195.00612423 353.49877157 209.99744707 353.51721191 224.9888916 C353.53864198 242.41892933 353.54703242 259.84889352 353.53476286 277.27894258 C353.53348873 279.13931559 353.53223125 280.99968861 353.5309906 282.86006165 C353.53006495 284.23289213 353.53006495 284.23289213 353.52912059 285.63345656 C353.5256741 292.06756064 353.5314809 298.50161789 353.54090881 304.93571472 C353.55215394 312.78207483 353.54903607 320.62827498 353.52778584 328.47461689 C353.51730913 332.47415266 353.51309547 336.4734222 353.52638245 340.4729557 C353.53838287 344.14082853 353.53161956 347.80819067 353.51047224 351.47601777 C353.50395285 353.41709821 353.51687357 355.35821467 353.53070116 357.2992568 C353.41560885 370.27998444 349.7988355 380.85193034 340.99572754 390.50793457 C330.58517294 399.93702274 318.63646319 402.11307343 304.99145508 402.01586914 C303.61608552 402.02048851 302.24072091 402.02684834 300.86536646 402.03477812 C297.118785 402.05135267 293.37261528 402.04327988 289.62603307 402.03083324 C285.57277961 402.02173594 281.51959407 402.03577555 277.46635437 402.04675293 C269.53902155 402.06449306 261.61184065 402.06071834 253.68450201 402.04910237 C247.23894025 402.04005052 240.79342091 402.0388516 234.34785461 402.04319763 C233.42874988 402.04381056 232.50964514 402.0444235 231.56268874 402.045055 C229.69525491 402.04633397 227.82782109 402.04763082 225.96038729 402.04894537 C208.46988715 402.06033796 190.97947101 402.04725821 173.48898464 402.0257439 C158.49753788 402.00787412 143.50621504 402.0109786 128.51477051 402.02941895 C111.08473278 402.05084901 93.65476859 402.05923945 76.22471952 402.04696989 C74.36434652 402.04569576 72.5039735 402.04443828 70.64360046 402.04319763 C69.72838014 402.04258053 68.81315982 402.04196343 67.87020555 402.04132763 C61.43610147 402.03788113 55.00204422 402.04368793 48.56794739 402.05311584 C40.72158728 402.06436097 32.87538713 402.0612431 25.02904522 402.03999287 C21.02950945 402.02951616 17.03023991 402.0253025 13.03070641 402.03858948 C9.36283358 402.0505899 5.69547143 402.0438266 2.02764434 402.02267927 C0.0865639 402.01615988 -1.85455256 402.0290806 -3.79559469 402.04290819 C-16.77632233 401.92781589 -27.34826823 398.31104253 -37.00427246 389.50793457 C-46.43336063 379.09737997 -48.60941132 367.14867022 -48.51220703 353.50366211 C-48.5168264 352.12829255 -48.52318623 350.75292795 -48.53111601 349.37757349 C-48.54769057 345.63099203 -48.53961778 341.88482231 -48.52717113 338.1382401 C-48.51807383 334.08498664 -48.53211344 330.03180111 -48.54309082 325.9785614 C-48.56083095 318.05122858 -48.55705623 310.12404768 -48.54544026 302.19670904 C-48.53638841 295.75114728 -48.5351895 289.30562794 -48.53953552 282.86006165 C-48.54014845 281.94095691 -48.54076139 281.02185217 -48.54139289 280.07489577 C-48.54267186 278.20746194 -48.54396871 276.34002812 -48.54528326 274.47259432 C-48.55667585 256.98209418 -48.5435961 239.49167804 -48.52208179 222.00119168 C-48.50421201 207.00974491 -48.50731649 192.01842207 -48.52575684 177.02697754 C-48.5471869 159.59693981 -48.55557734 142.16697562 -48.54330778 124.73692656 C-48.54203365 122.87655355 -48.54077617 121.01618053 -48.53953552 119.1558075 C-48.53891842 118.24058717 -48.53830132 117.32536685 -48.53766552 116.38241258 C-48.53421902 109.9483085 -48.54002582 103.51425125 -48.54945374 97.08015442 C-48.56069886 89.23379431 -48.55758099 81.38759416 -48.53633076 73.54125226 C-48.52585405 69.54171648 -48.52164039 65.54244694 -48.53492737 61.54291344 C-48.54692779 57.87504061 -48.54016449 54.20767847 -48.51901716 50.53985137 C-48.51249777 48.59877093 -48.52541849 46.65765448 -48.53924608 44.71661234 C-48.42415378 31.7358847 -44.80738042 21.1639388 -36.00427246 11.50793457 C-25.59371786 2.0788464 -13.64500811 -0.09720429 0 0 Z M-30.00427246 22.50793457 C-34.12552366 28.66305 -36.12520324 33.72156 -36.13849354 41.14154243 C-36.14295138 42.29634358 -36.14740923 43.45114472 -36.15200216 44.64093983 C-36.15181779 45.91037115 -36.15163343 47.17980248 -36.15144348 48.48770142 C-36.15474337 49.8493367 -36.1584692 51.210971 -36.16258496 52.57260406 C-36.17259889 56.31818295 -36.17632078 60.06374581 -36.17897427 63.80933619 C-36.18287912 67.84767493 -36.19245733 71.88600101 -36.20118713 75.92433167 C-36.22094638 85.6788195 -36.23101705 95.43330836 -36.23991492 105.1878112 C-36.24429869 109.78197568 -36.24966527 114.37613901 -36.25490379 118.97030258 C-36.2719155 134.243353 -36.28640956 149.5164027 -36.29365253 164.78946114 C-36.29556241 168.7525851 -36.29748275 172.71570906 -36.29943848 176.67883301 C-36.29992222 177.66384139 -36.30040596 178.64884977 -36.30090436 179.66370688 C-36.30920425 195.61935339 -36.33454073 211.57492492 -36.36701915 227.53053869 C-36.40009572 243.91363491 -36.41810184 260.29669302 -36.42129678 276.6798228 C-36.42346131 285.8776107 -36.43220174 295.07528925 -36.45775795 304.27304459 C-36.4794731 312.10645762 -36.48751136 319.93973476 -36.47779117 327.77317448 C-36.47324882 331.7683731 -36.47512867 335.76329136 -36.49455261 339.75845146 C-36.51220212 343.42034503 -36.5111725 347.08175408 -36.49565532 350.74365292 C-36.49216283 352.6866135 -36.50829225 354.62957925 -36.52525979 356.57246888 C-36.4538694 366.31023327 -34.56322083 374.67349396 -27.78161621 381.97277832 C-21.67375831 387.24835668 -15.35211916 389.62785967 -7.3706646 389.64215565 C-6.21586346 389.64661349 -5.06106231 389.65107134 -3.8712672 389.65566427 C-1.96712022 389.65538772 -1.96712022 389.65538772 -0.02450562 389.65510559 C1.33712967 389.65840548 2.69876397 389.66213131 4.06039703 389.66624707 C7.80597592 389.676261 11.55153878 389.67998289 15.29712915 389.68263638 C19.3354679 389.68654123 23.37379398 389.69611944 27.41212463 389.70484924 C37.16661246 389.72460849 46.92110132 389.73467916 56.67560416 389.74357703 C61.26976865 389.7479608 65.86393198 389.75332738 70.45809555 389.7585659 C85.73114597 389.77557761 101.00419567 389.79007167 116.2772541 389.79731464 C120.24037807 389.79922452 124.20350203 389.80114486 128.16662598 389.80310059 C129.15163436 389.80358433 130.13664273 389.80406807 131.15149985 389.80456647 C147.10714636 389.81286636 163.06271789 389.83820284 179.01833166 389.87068126 C195.40142788 389.90375783 211.78448599 389.92176394 228.16761577 389.92495888 C237.36540367 389.92712342 246.56308221 389.93586385 255.76083755 389.96142006 C263.59425059 389.98313521 271.42752772 389.99117347 279.26096745 389.98145328 C283.25616607 389.97691093 287.25108433 389.97879078 291.24624443 389.99821472 C294.908138 390.01586423 298.56954705 390.01483461 302.23144589 389.99931743 C304.17440647 389.99582494 306.11737222 390.01195436 308.06026185 390.0289219 C317.79802624 389.95753151 326.16128693 388.06688293 333.46057129 381.28527832 C338.73614965 375.17742042 341.11565263 368.85578127 341.12994862 360.87432671 C341.13663538 359.14212499 341.13663538 359.14212499 341.14345723 357.37492931 C341.14327287 356.10549799 341.14308851 354.83606666 341.14289856 353.52816772 C341.14619845 352.16653244 341.14992428 350.80489814 341.15404004 349.44326508 C341.16405397 345.69768619 341.16777585 341.95212333 341.17042935 338.20653296 C341.1743342 334.16819421 341.18391241 330.12986813 341.19264221 326.09153748 C341.21240146 316.33704965 341.22247213 306.58256078 341.23137 296.82805794 C341.23575377 292.23389346 341.24112035 287.63973013 341.24635887 283.04556656 C341.26337058 267.77251614 341.27786464 252.49946644 341.28510761 237.226408 C341.28701749 233.26328404 341.28893782 229.30016008 341.29089355 225.33703613 C341.29137729 224.35202775 341.29186104 223.36701937 341.29235943 222.35216226 C341.30065932 206.39651575 341.32599581 190.44094422 341.35847423 174.48533045 C341.3915508 158.10223423 341.40955691 141.71917612 341.41275185 125.33604634 C341.41491639 116.13825844 341.42365681 106.9405799 341.44921303 97.74282455 C341.47092818 89.90941152 341.47896644 82.07613438 341.46924625 74.24269466 C341.4647039 70.24749604 341.46658375 66.25257778 341.48600769 62.25741768 C341.5036572 58.59552411 341.50262758 54.93411506 341.4871104 51.27221622 C341.48361791 49.32925564 341.49974733 47.38628989 341.51671487 45.44340026 C341.44532448 35.70563587 339.5546759 27.34237518 332.77307129 20.04309082 C326.66521339 14.76751246 320.34357424 12.38800947 312.36211967 12.37371349 C311.20731853 12.36925565 310.05251739 12.36479781 308.86272228 12.36020488 C306.95857529 12.36048142 306.95857529 12.36048142 305.01596069 12.36076355 C303.65432541 12.35746366 302.29269111 12.35373783 300.93105805 12.34962207 C297.18547916 12.33960814 293.4399163 12.33588626 289.69432592 12.33323276 C285.65598718 12.32932791 281.6176611 12.3197497 277.57933044 12.3110199 C267.82484261 12.29126065 258.07035375 12.28118998 248.31585091 12.27229211 C243.72168643 12.26790834 239.1275231 12.26254176 234.53335953 12.25730324 C219.26030911 12.24029153 203.98725941 12.22579747 188.71420097 12.2185545 C184.75107701 12.21664462 180.78795305 12.21472428 176.8248291 12.21276855 C175.83982072 12.21228481 174.85481234 12.21180107 173.83995523 12.21130268 C157.88430872 12.20300278 141.92873719 12.1776663 125.97312342 12.14518788 C109.5900272 12.11211131 93.20696909 12.0941052 76.82383931 12.09091026 C67.62605141 12.08874572 58.42837286 12.0800053 49.23061752 12.05444908 C41.39720448 12.03273393 33.56392735 12.02469567 25.73048763 12.03441586 C21.73528901 12.03895821 17.74037075 12.03707836 13.74521065 12.01765442 C10.08331708 12.00000491 6.42190803 12.00103453 2.76000918 12.01655171 C0.81704861 12.0200442 -1.12591715 12.00391478 -3.06880677 11.98694724 C-13.50902191 12.0634875 -22.93908292 14.32813497 -30.00427246 22.50793457 Z " fill="#000000" transform="translate(104.0042724609375,55.4920654296875)"/>
<path d="M0 0 C34.98 0 69.96 0 106 0 C106 34.98 106 69.96 106 106 C71.02 106 36.04 106 0 106 C0 71.02 0 36.04 0 0 Z " fill="#C6EFF8" transform="translate(320,320)"/>
<path d="M0 0 C34.98 0 69.96 0 106 0 C106 34.98 106 69.96 106 106 C71.02 106 36.04 106 0 106 C0 71.02 0 36.04 0 0 Z " fill="#C6EFF8" transform="translate(203,320)"/>
<path d="M0 0 C34.98 0 69.96 0 106 0 C106 34.98 106 69.96 106 106 C71.02 106 36.04 106 0 106 C0 71.02 0 36.04 0 0 Z " fill="#C6EFF8" transform="translate(86,320)"/>
<path d="M0 0 C34.98 0 69.96 0 106 0 C106 34.98 106 69.96 106 106 C71.02 106 36.04 106 0 106 C0 71.02 0 36.04 0 0 Z " fill="#C6EFF8" transform="translate(320,203)"/>
<path d="M0 0 C34.98 0 69.96 0 106 0 C106 34.98 106 69.96 106 106 C71.02 106 36.04 106 0 106 C0 71.02 0 36.04 0 0 Z " fill="#C6EFF8" transform="translate(203,203)"/>
<path d="M0 0 C34.98 0 69.96 0 106 0 C106 34.98 106 69.96 106 106 C71.02 106 36.04 106 0 106 C0 71.02 0 36.04 0 0 Z " fill="#C6EFF8" transform="translate(86,203)"/>
<path d="M0 0 C34.98 0 69.96 0 106 0 C106 34.98 106 69.96 106 106 C71.02 106 36.04 106 0 106 C0 71.02 0 36.04 0 0 Z " fill="#C6EFF8" transform="translate(320,86)"/>
<path d="M0 0 C34.98 0 69.96 0 106 0 C106 34.98 106 69.96 106 106 C71.02 106 36.04 106 0 106 C0 71.02 0 36.04 0 0 Z " fill="#C6EFF8" transform="translate(203,86)"/>
<path d="M0 0 C34.98 0 69.96 0 106 0 C106 34.98 106 69.96 106 106 C71.02 106 36.04 106 0 106 C0 71.02 0 36.04 0 0 Z " fill="#C6EFF8" transform="translate(86,86)"/>
<path d="M0 0 C34.98 0 69.96 0 106 0 C106 34.98 106 69.96 106 106 C71.02 106 36.04 106 0 106 C0 71.02 0 36.04 0 0 Z M8 8 C8 37.7 8 67.4 8 98 C37.7 98 67.4 98 98 98 C98 68.3 98 38.6 98 8 C68.3 8 38.6 8 8 8 Z " fill="#000000" transform="translate(320,320)"/>
<path d="M0 0 C34.98 0 69.96 0 106 0 C106 34.98 106 69.96 106 106 C71.02 106 36.04 106 0 106 C0 71.02 0 36.04 0 0 Z M8 8 C8 37.7 8 67.4 8 98 C37.7 98 67.4 98 98 98 C98 68.3 98 38.6 98 8 C68.3 8 38.6 8 8 8 Z " fill="#000000" transform="translate(203,320)"/>
<path d="M0 0 C34.98 0 69.96 0 106 0 C106 34.98 106 69.96 106 106 C71.02 106 36.04 106 0 106 C0 71.02 0 36.04 0 0 Z M8 8 C8 37.7 8 67.4 8 98 C37.7 98 67.4 98 98 98 C98 68.3 98 38.6 98 8 C68.3 8 38.6 8 8 8 Z " fill="#000000" transform="translate(86,320)"/>
<path d="M0 0 C34.98 0 69.96 0 106 0 C106 34.98 106 69.96 106 106 C71.02 106 36.04 106 0 106 C0 71.02 0 36.04 0 0 Z M8 8 C8 37.7 8 67.4 8 98 C37.7 98 67.4 98 98 98 C98 68.3 98 38.6 98 8 C68.3 8 38.6 8 8 8 Z " fill="#000000" transform="translate(320,203)"/>
<path d="M0 0 C34.98 0 69.96 0 106 0 C106 34.98 106 69.96 106 106 C71.02 106 36.04 106 0 106 C0 71.02 0 36.04 0 0 Z M8 8 C8 37.7 8 67.4 8 98 C37.7 98 67.4 98 98 98 C98 68.3 98 38.6 98 8 C68.3 8 38.6 8 8 8 Z " fill="#000000" transform="translate(203,203)"/>
<path d="M0 0 C34.98 0 69.96 0 106 0 C106 34.98 106 69.96 106 106 C71.02 106 36.04 106 0 106 C0 71.02 0 36.04 0 0 Z M8 8 C8 37.7 8 67.4 8 98 C37.7 98 67.4 98 98 98 C98 68.3 98 38.6 98 8 C68.3 8 38.6 8 8 8 Z " fill="#000000" transform="translate(86,203)"/>
<path d="M0 0 C34.98 0 69.96 0 106 0 C106 34.98 106 69.96 106 106 C71.02 106 36.04 106 0 106 C0 71.02 0 36.04 0 0 Z M8 8 C8 37.7 8 67.4 8 98 C37.7 98 67.4 98 98 98 C98 68.3 98 38.6 98 8 C68.3 8 38.6 8 8 8 Z " fill="#000000" transform="translate(320,86)"/>
<path d="M0 0 C34.98 0 69.96 0 106 0 C106 34.98 106 69.96 106 106 C71.02 106 36.04 106 0 106 C0 71.02 0 36.04 0 0 Z M8 8 C8 37.7 8 67.4 8 98 C37.7 98 67.4 98 98 98 C98 68.3 98 38.6 98 8 C68.3 8 38.6 8 8 8 Z " fill="#000000" transform="translate(203,86)"/>
<path d="M0 0 C34.98 0 69.96 0 106 0 C106 34.98 106 69.96 106 106 C71.02 106 36.04 106 0 106 C0 71.02 0 36.04 0 0 Z M8 8 C8 37.7 8 67.4 8 98 C37.7 98 67.4 98 98 98 C98 68.3 98 38.6 98 8 C68.3 8 38.6 8 8 8 Z " fill="#000000" transform="translate(86,86)"/>
</svg>
